:SAMPLES-PER-SECOND 24
:FULLY-SPECIFIED
:DEGREES
225
root  -1.4129 38.8916 17.699 6.38208 -34.9337 0.708282
RightUpLeg  -8.8815 5.5567 -13.1819
RightLeg  28.0291 -3.15036 -2.05691
RightFoot  -15.8588 0.426286 13.6451
RightToes  -2.08645e-008 3.77894e-005 6.81332e-007
Spine  -2.76629 -0.531658 -4.76341
Spine1  11.4785 -1.43884 3.59907
HEad  -34.0185 23.4481 -16.4914
LeftShoulder1  6.4157 -12.1069 -35.08
LeftArm  -3.16198 21.648 -33.0089
LeftForeArm  161.493 -70.6603 -151.276
LeftHand  -0.453598 -2.13504 7.19769
RightShoulder  3.66259 6.25939 31.6266
RightArm  14.4188 -24.5459 33.4387
RightForeArm  140.002 78.0996 127.481
RightHand  -0.125158 9.62351 -1.36571
LeftUpLeg  -8.44047 -4.51413 12.5375
LeftLeg  21.6765 6.8025 3.26662
LeftFoot  -9.11009 0.509809 -22.2207
LeftToes  1.24767e-006 1.47042e-008 1.32732e-009
226
root  -1.38218 40.6153 17.8862 8.64447 -35.0162 -0.089386
RightUpLeg  -8.28978 2.25723 -12.7584
RightLeg  20.1204 -1.60499 -0.863708
RightFoot  -3.42763 -0.982962 13.8093
RightToes  -2.08645e-008 3.77894e-005 6.81332e-007
Spine  -5.31369 -1.03649 -5.00143
Spine1  9.55635 -1.95241 4.51826
HEad  -29.9871 25.7384 -15.6702
LeftShoulder1  6.23731 -11.8651 -34.5733
LeftArm  -6.701 29.6887 -40.5775
LeftForeArm  154.426 -69.5922 -151.883
LeftHand  -0.446053 -1.79118 7.39306
RightShoulder  3.62821 6.15076 31.6936
RightArm  15.9211 -29.8627 34.7821
RightForeArm  152.425 75.439 139.945
RightHand  0.0300613 10.4102 -0.194611
LeftUpLeg  -8.64108 2.61456 13.0095
LeftLeg  15.1595 2.3369 1.45564
LeftFoot  5.06715 3.1133 -21.5829
LeftToes  1.24767e-006 1.47042e-008 1.32732e-009
227
root  -1.26285 41.8474 17.8947 10.0885 -35.6001 -1.14542
RightUpLeg  -9.02469 -1.00707 -11.3642
RightLeg  16.972 -1.85803 -1.04192
RightFoot  5.47321 -1.93357 13.269
RightToes  -2.08645e-008 3.77894e-005 6.81332e-007
Spine  -6.28733 -0.849013 -3.12349
Spine1  8.56696 -1.39748 3.11855
HEad  -29.6446 26.5557 -15.1639
LeftShoulder1  6.2326 -11.9261 -34.3843
LeftArm  -7.83161 33.7321 -42.8474
LeftForeArm  152.201 -67.8353 -153.908
LeftHand  -0.336183 -1.80886 5.59637
RightShoulder  3.86367 6.44777 32.9413
RightArm  15.5743 -33.5062 33.2195
RightForeArm  162.816 71.3443 150.395
RightHand  0.455971 11.2457 2.74526
LeftUpLeg  -9.53287 7.62319 13.5045
LeftLeg  12.3576 1.84914 0.926391
LeftFoot  16.0547 4.44334 -18.4536
LeftToes  1.24767e-006 1.47042e-008 1.32732e-009
228
root  -1.00733 42.3736 17.7581 9.53912 -36.077 -2.14975
RightUpLeg  -8.61838 -2.06512 -9.78377
RightLeg  17.5421 -2.41591 -1.23158
RightFoot  6.59289 -2.14321 13.8207
RightToes  -2.08645e-008 3.77894e-005 6.81332e-007
Spine  -4.74257 -0.567936 -1.4163
Spine1  8.50117 -1.02569 2.3798
HEad  -31.6049 26.2894 -15.8546
LeftShoulder1  6.25591 -12.022 -34.2895
LeftArm  -6.08164 33.8445 -41.6293
LeftForeArm  157.427 -66.0076 -156.603
LeftHand  -0.231616 -2.10418 3.78584
RightShoulder  3.93179 6.59242 33.0609
RightArm  15.1884 -33.2182 31.532
RightForeArm  166.061 68.5776 154.753
RightHand  0.390384 11.0308 2.31945
LeftUpLeg  -9.38686 6.21136 13.7522
LeftLeg  12.2831 2.26978 1.19375
LeftFoot  16.9112 4.38196 -17.7087
LeftToes  1.24767e-006 1.47042e-008 1.32732e-009
229
root  -0.784204 42.2915 17.5695 8.36285 -36.003 -2.41927
RightUpLeg  -7.89978 -2.11462 -8.68952
RightLeg  19.1568 -0.231893 -0.310804
RightFoot  4.56668 -2.09842 15.19
RightToes  -2.08645e-008 3.77894e-005 6.81332e-007
Spine  -3.05806 -0.562932 -1.71232
Spine1  8.2395 -1.16122 2.88199
HEad  -31.6583 25.9311 -15.6944
LeftShoulder1  5.8326 -11.5542 -32.733
LeftArm  -1.21556 31.227 -39.8218
LeftForeArm  162.34 -66.013 -157.149
LeftHand  -0.264191 -2.50371 4.09287
RightShoulder  3.64369 6.28781 31.3163
RightArm  16.0337 -30.6678 31.2101
RightForeArm  162.397 69.0165 153.71
RightHand  -0.018118 9.21979 -0.561348
LeftUpLeg  -9.56728 2.60016 13.0283
LeftLeg  12.9123 -0.783457 0.747856
LeftFoot  13.6948 4.12214 -18.8244
LeftToes  1.24767e-006 1.47042e-008 1.32732e-009
230
root  -0.640383 41.5947 17.4392 7.77594 -36.2575 -2.24039
RightUpLeg  -7.95469 -1.77964 -7.81435
RightLeg  20.9537 0.924836 0.176617
RightFoot  1.02811 -1.52921 14.1111
RightToes  -2.08645e-008 3.77894e-005 6.81332e-007
Spine  -2.84364 -0.478398 -2.6043
Spine1  7.85631 -1.12836 3.21996
HEad  -30.7181 25.8521 -14.4914
LeftShoulder1  5.39679 -11.0322 -31.126
LeftArm  4.3123 27.0324 -36.4058
LeftForeArm  162.695 -66.7092 -156.465
LeftHand  -0.227296 -2.85934 3.42589
RightShoulder  3.43518 6.04812 30.0544
RightArm  16.349 -27.2382 30.0538
RightForeArm  156.3 71.3119 149.486
RightHand  -0.0521144 8.48758 -0.819734
LeftUpLeg  -10.2472 -1.85163 12.0524
LeftLeg  14.5926 -0.930952 0.628531
LeftFoot  8.95435 3.20223 -18.0698
LeftToes  1.24767e-006 1.47042e-008 1.32732e-009
231
root  -0.45806 40.3185 17.3491 7.34937 -36.7382 -2.27983
RightUpLeg  -7.29599 -1.57961 -7.0897
RightLeg  22.2164 -1.11155 -0.716677
RightFoot  -7.29772 -0.423321 10.3042
RightToes  -2.08645e-008 3.77894e-005 6.81332e-007
Spine  -2.71356 -0.324 -2.51296
Spine1  7.58707 -0.941411 3.23479
HEad  -30.6628 25.7293 -14.0521
LeftShoulder1  5.56801 -11.1671 -31.9531
LeftArm  8.59866 20.876 -30.0797
LeftForeArm  161.04 -67.6861 -155.182
LeftHand  -0.176375 -3.36712 2.58046
RightShoulder  3.50579 6.14426 30.4333
RightArm  15.1242 -22.6223 27.7098
RightForeArm  149.056 74.7883 140.989
RightHand  -0.0680579 8.75987 -0.9444
LeftUpLeg  -10.847 -6.50569 11.6756
LeftLeg  18.7851 4.01038 1.81778
LeftFoot  -1.17309 1.39631 -15.4929
LeftToes  1.24767e-006 1.47042e-008 1.32732e-009
